<svg width="40" height="40" viewBox="0 0 40 40" fill="none" xmlns="http://www.w3.org/2000/svg">
<circle cx="20" cy="20" r="20" fill="white"/>
<path d="M29.728 18.1211L28.1812 16.9611C27.814 16.6857 27.2203 16.6857 26.857 16.9611L17.5018 23.9767L13.1503 20.7105C12.7831 20.4352 12.1894 20.4352 11.8261 20.7105L10.2754 21.8735C9.90821 22.1488 9.90821 22.5941 10.2754 22.8694L16.8377 27.7935C17.2049 28.0688 17.7986 28.0688 18.1619 27.7935L29.7241 19.117C30.0913 18.8387 30.0913 18.3935 29.728 18.1211ZM17.0604 21.2261C17.3026 21.4106 17.701 21.4106 17.9432 21.2261L26.068 15.1274C26.3101 14.9428 26.3101 14.647 26.068 14.4654L24.3024 13.1384C24.0602 12.9539 23.6618 12.9539 23.4196 13.1384L17.5018 17.5762L15.3378 15.9505C15.0956 15.766 14.6972 15.766 14.455 15.9505L12.6855 17.2774C12.4433 17.462 12.4433 17.7578 12.6855 17.9395L17.0604 21.2261Z" fill="#FFC350"/>
</svg>
